<svg id="SvgjsSvg1001" width="256" height="256" xmlns="http://www.w3.org/2000/svg" version="1.1"
    xmlns:xlink="http://www.w3.org/1999/xlink" xmlns:svgjs="http://svgjs.com/svgjs">
    <defs id="SvgjsDefs1002"></defs>
    <g id="SvgjsG1008">
        <svg xmlns="http://www.w3.org/2000/svg" data-name="Layer 3" viewBox="0 0 22 22" width="256"
            height="256">
            <path
                d="M11 0a11 11 0 1 0 11 11A11.007 11.007 0 0 0 11 0Zm5.19 7.07-2.12 6.37a.989.989 0 0 1-.63.63l-6.37 2.12a.84.84 0 0 1-.31.05 1.007 1.007 0 0 1-.71-.29.99.99 0 0 1-.24-1.02l2.12-6.37a.989.989 0 0 1 .63-.63l6.37-2.12a.995.995 0 0 1 1.26 1.26Z"
                fill="#5971ff" class="color000 svgShape"></path>
            <path d="m13.66 8.34-1.15 3.46-2.31-2.31 3.46-1.15z" fill="#5971ff"
                class="color000 svgShape"></path>
        </svg>
    </g>
</svg>