<svg xmlns="http://www.w3.org/2000/svg" viewBox="0 0 24 24" id="history" fill="#aaaaaa">
    <path
        d="M12 19c-3.9 0-7-3.1-7-7s3.1-7 7-7c2 0 3.9.9 5.2 2.3l-1.8.3c-.5.1-.9.6-.8 1.2.1.5.5.8 1 .8h.2l4.2-.8c.5-.1.9-.6.8-1.2L20 3.5c-.1-.5-.6-.9-1.2-.8-.5.1-.9.6-.8 1.2l.3 1.7C16.6 4 14.4 3 12 3 8.7 3 5.8 4.8 4.2 7.5 3.4 8.9 3 10.4 3 12s.4 3.1 1.2 4.5c.8 1.4 1.9 2.5 3.3 3.3 1.4.8 2.9 1.2 4.5 1.2.4 0 .8-.3.9-.6.1-.1.1-.3.1-.4 0-.1 0-.3-.1-.4-.1-.3-.5-.6-.9-.6z"></path>
    <circle cx="20" cy="12" r="1"></circle>
    <circle cx="18.9" cy="16" r="1" transform="rotate(-60 18.928 16)"></circle>
    <circle cx="16" cy="18.9" r="1" transform="rotate(-30 15.999 18.929)"></circle>
    <path
        d="M13 11.6V9c0-.6-.4-1-1-1s-1 .4-1 1v3c0 .3.1.5.3.7l2 2c.2.2.5.3.7.3s.5-.1.7-.3c.4-.4.4-1 0-1.4L13 11.6z"></path>
</svg>