<svg id="SvgjsSvg1031" width="256" height="256" xmlns="http://www.w3.org/2000/svg" version="1.1" xmlns:xlink="http://www.w3.org/1999/xlink" xmlns:svgjs="http://svgjs.com/svgjs"><defs id="SvgjsDefs1032"></defs><g id="SvgjsG1033"><svg xmlns="http://www.w3.org/2000/svg" data-name="Layer 1" viewBox="0 0 24 24" width="256" height="256"><path d="M12,2A10,10,0,0,0,4.65,18.76h0a10,10,0,0,0,14.7,0h0A10,10,0,0,0,12,2Zm0,18a8,8,0,0,1-5.55-2.25,6,6,0,0,1,11.1,0A8,8,0,0,1,12,20ZM10,10a2,2,0,1,1,2,2A2,2,0,0,1,10,10Zm8.91,6A8,8,0,0,0,15,12.62a4,4,0,1,0-6,0A8,8,0,0,0,5.09,16,7.92,7.92,0,0,1,4,12a8,8,0,0,1,16,0A7.92,7.92,0,0,1,18.91,16Z" fill="#000000" class="color000 svgShape"></path></svg></g></svg>